<?xml version="1.0" encoding="utf-8"?>
<!-- Generator: Adobe Illustrator 17.1.0, SVG Export Plug-In . SVG Version: 6.00 Build 0)  -->
<!DOCTYPE svg PUBLIC "-//W3C//DTD SVG 1.1//EN" "http://www.w3.org/Graphics/SVG/1.1/DTD/svg11.dtd">
<svg version="1.1" id="dillards-logo" xmlns="http://www.w3.org/2000/svg" height="48" width="187" xmlns:xlink="http://www.w3.org/1999/xlink" x="0px" y="0px" 
	 viewBox="0 0 187.1 47.9" enable-background="new 0 0 187.1 47.9" xml:space="preserve">
<path fill-rule="evenodd" clip-rule="evenodd" fill="#231F20" d="M11.5,9.1c0-3.2,0.2-4.8,0.7-5.3C12.8,3.4,15,2.8,19,2.8
	c18,0,21.7,12.8,21.7,20.4c0,12.7-6,21.5-19.3,21.5c-4.4,0-6.9-0.7-8.5-2.8c-1.2-1.6-1.4-3.9-1.4-7.5V9.1L11.5,9.1z M6,35.9
	c0,7.3-0.2,8.1-4.2,8.6l-1.5,0.2c-0.4,0.5-0.2,1.5,0.1,1.8c3.3-0.1,5.8-0.2,8.6-0.2c2.5,0,6.8,0.6,11.2,0.6c5.3,0,10.9-0.9,15.4-3.3
	c7.9-4.2,12-11.8,12-20.5c0-9.1-4.6-16.9-13.9-20.2c-4.5-1.6-9.4-2.1-15.2-2.1S7,0.9,1.3,1.3C0.6,1.5,0.7,2.6,1.2,2.9l1.5,0.2
	C5.6,3.6,6,5.1,6,9.9V35.9L6,35.9z"/>
<path fill-rule="evenodd" clip-rule="evenodd" fill="#231F20" d="M52,26.6c0-2.7,0-3.1-1.9-4.4l-0.6-0.4c-0.4-0.2-0.4-1.1,0-1.3
	c1.6-0.5,5.5-2.4,7.1-3.3c0.4,0,0.7,0.1,0.7,0.4c-0.1,2.5-0.2,5.8-0.2,8.6v12.4c0,4.9,0.1,5.6,2.6,5.9l1.4,0.2
	c0.5,0.4,0.4,1.5-0.1,1.8c-2-0.1-4-0.2-6.5-0.2c-2.5,0-4.5,0.1-6.5,0.2c-0.5-0.2-0.6-1.4-0.1-1.8l1.4-0.2c2.6-0.2,2.7-0.9,2.7-5.9
	V26.6L52,26.6z M57.5,6.4c0,2.4-1.6,3.5-3.5,3.5c-2.1,0-3.5-1.5-3.5-3.4c0-2.2,1.8-3.6,3.8-3.6C56.2,2.8,57.5,4.4,57.5,6.4L57.5,6.4
	z"/>
<path fill-rule="evenodd" clip-rule="evenodd" fill="#231F20" d="M71.3,38.6c0,4.9,0.1,5.6,2.6,5.9l1.6,0.2c0.5,0.4,0.4,1.5-0.1,1.8
	c-2.4-0.1-4.4-0.2-6.7-0.2c-2.5,0-4.5,0.1-6.6,0.2c-0.5-0.2-0.6-1.4-0.1-1.8l1.5-0.2c2.6-0.2,2.6-0.9,2.6-5.9V10.4
	c0-4,0-4.5-2.1-5.6l-0.7-0.5c-0.2-0.2-0.2-1.2,0-1.3c1.8-0.6,5.1-1.6,7.5-2.9c0.2,0,0.5,0.1,0.6,0.4c0,2.1-0.1,5.5-0.1,8.6V38.6
	L71.3,38.6z"/>
<path fill-rule="evenodd" clip-rule="evenodd" fill="#231F20" d="M85.8,38.6c0,4.9,0.1,5.6,2.6,5.9l1.6,0.2c0.5,0.4,0.4,1.5-0.1,1.8
	c-2.2-0.1-4.2-0.2-6.7-0.2s-4.5,0.1-6.6,0.2c-0.5-0.2-0.6-1.4-0.1-1.8l1.5-0.2c2.6-0.2,2.7-0.9,2.7-5.9V10.4c0-4-0.1-4.5-2.1-5.6
	l-0.7-0.5c-0.4-0.2-0.4-1.2,0-1.3c1.6-0.6,4.9-1.6,7.4-2.9c0.2,0,0.5,0.1,0.7,0.4c-0.1,2.1-0.2,5.5-0.2,8.6V38.6L85.8,38.6z"/>
<path fill-rule="evenodd" clip-rule="evenodd" fill="#231F20" d="M95.9,40c0-2.7,2-3.8,6-5.1c1.2-0.5,2.4-0.7,2.8-0.7
	c0.4,0,0.7,0.1,0.7,0.9l-0.1,4c0,1.4-0.1,2.4-0.9,3.2c-0.7,0.7-2.8,1.8-4.2,1.8C96.7,44.1,95.9,41.2,95.9,40L95.9,40z M96.2,35
	c-4.4,1.6-5.6,3.2-5.6,5.9c0,1.9,0.8,3.6,2.1,4.8c1.2,1.1,2.8,1.5,4.8,1.5c1.9,0,3.4-0.8,4.9-1.6c1.3-0.8,2.1-1.4,2.6-1.4
	c0.5,0,0.8,0.6,1.2,0.9c1.2,1.5,2.8,2.1,4.5,2.1c3.3,0,5.8-2.7,5.8-2.9c0-0.6-0.2-0.9-0.5-0.9c-0.2,0-0.6,0.2-0.9,0.5
	c-0.4,0.2-1.1,0.5-1.8,0.5c-2.6,0-3.3-2.8-3.1-6l0.4-12c0.2-5.2-2.2-8-7.2-8c-4.9,0-12.7,4.8-12.7,8.5c0,0.6,0.4,0.9,0.9,0.9
	c1.1,0,2.9-0.5,3.9-1.3c0.6-0.5,0.7-1.3,0.7-2.4c0.1-2.1,2.5-3.1,4.4-3.1c4.4,0,5.2,3.4,5.1,5.9V30c-0.1,1.1-0.2,1.6-1.2,2L96.2,35
	L96.2,35z"/>
<path fill-rule="evenodd" clip-rule="evenodd" fill="#231F20" d="M120.6,26.6c0-2.7,0-3.1-1.9-4.4l-0.6-0.4c-0.4-0.2-0.4-1.1,0-1.3
	c1.6-0.5,5.3-2.4,6.9-3.3c0.4,0,0.6,0.1,0.6,0.5v4c0,0.4,0.1,0.5,0.2,0.6c2.4-2,4.9-4.1,7.5-4.1c1.8,0,3.1,1.1,3.1,2.7
	c0,2.2-1.9,3.2-2.9,3.2c-0.7,0-1.1-0.2-1.5-0.5c-1.1-0.7-2-1.1-2.9-1.1c-1.2,0-2,0.6-2.5,1.3c-0.7,1.1-0.9,2.9-0.9,5.3v9.4
	c0,4.9,0.1,5.8,2.7,5.9l2.5,0.2c0.5,0.4,0.4,1.5-0.1,1.8c-3.2-0.1-5.2-0.2-7.6-0.2c-2.5,0-4.5,0.1-6.2,0.2c-0.5-0.2-0.7-1.4-0.2-1.8
	l1.4-0.2c2.5-0.4,2.6-0.9,2.6-5.9V26.6L120.6,26.6z"/>
<path fill-rule="evenodd" clip-rule="evenodd" fill="#231F20" d="M154.8,39.4c0,1.2-0.1,2.1-0.5,2.6c-1.1,1.1-3.4,1.9-5.3,1.9
	c-6.7,0-10.2-5.9-10.2-12.1c0-6,3.2-11.4,9.5-11.4c2.6,0,4.7,1.4,5.8,2.8c0.5,0.7,0.7,1.4,0.7,2.7V39.4L154.8,39.4z M159.9,8.9
	c0-3.1,0.1-6.5,0.2-8.6C160,0.1,159.7,0,159.4,0c-2.5,1.3-5.6,2.4-7.4,2.9c-0.4,0.1-0.4,1.1,0,1.3l0.7,0.5c2,1.2,2.1,1.6,2.1,5.6
	v7.5c0,0.6-0.1,0.9-0.4,0.9c-0.8-0.2-2.4-0.6-4.7-0.6c-9.3,0-16.6,6.1-16.6,15.8c0,7.2,5.1,13.2,12.7,13.2c3.3,0,5.6-1.1,8.7-3.2
	h0.2c0.1,0.4,0.1,1.2,0.1,2.1v1.2c0,0.4,0.4,0.6,0.8,0.6c1.9-0.7,6.1-1.8,9.1-2.2c0.6-0.4,0.5-2,0-2.1c-0.9,0.4-2.1,0.7-2.9,0.7
	c-1.9,0-2-2.6-2-8V8.9L159.9,8.9z"/>
<path fill-rule="evenodd" clip-rule="evenodd" fill="#231F20" d="M173.8,9.3c0,4.7-3.8,8-8.1,9.3c-0.5-0.2-0.8-0.9-0.5-1.4
	c2.6-1.2,5.3-3.1,5.3-5.9c0-2.7-2.1-3.9-3.5-3.9c-0.9-0.1-1.8-0.6-1.8-1.9c0-1.1,0.6-2.8,3.3-2.8C171.3,2.7,173.8,5.6,173.8,9.3
	L173.8,9.3z"/>
<path fill-rule="evenodd" clip-rule="evenodd" fill="#231F20" d="M185.8,19.4c0.6,1.5,1.1,3.8,1.1,5.6c-0.2,0.5-1.3,0.6-1.6,0.1
	c-1.2-2.9-3.2-4.9-6-4.9c-2.7,0-4.5,1.6-4.5,4.1c0,2.8,2.9,4.4,5.3,5.8c3.6,2,7.1,4.4,7.1,9.3c0,5.2-4.8,7.8-9.9,7.8
	c-3.3,0-5.6-0.7-7.4-2c-0.5-1.3-0.9-4.7-0.8-6.9c0.4-0.5,1.3-0.5,1.6-0.1c1.2,3.8,3.3,7.1,7.3,7.1c2.5,0,4.6-1.4,4.6-4.4
	c0-3.2-2.8-4.9-5.3-6.4c-4-2.2-6.8-4.6-6.8-8.5c0-4.9,4.1-7.8,9.3-7.8C182.6,18.2,185.1,18.9,185.8,19.4L185.8,19.4z"/>
</svg>
